# xmcd CD database file
#
# Track frame offsets:
#	150
#	13820
#	31332
#	52547
#	67819
#	95317
#	107245
#	122318
#	137835
#	157252
#	167536
#	181265
#	200292
#	209178
#	228366
#	243462
#	257028
#	268121
#	287224
#
# Disc length: 4023 seconds
#
# Revision: 2
# Processed by: cddbd v1.5.2PL0 Copyright (c) Steve Scherf et al.
# Submitted via: CDex 1.51
#
DISCID=0b0fb513
DTITLE=Charlie Parker - Complete Bird at the Open Door
DYEAR=1900
DGENRE=Jazz
TTITLE0=Out of Nowhere
TTITLE1=Star Eyes
TTITLE2=Cool Blues
TTITLE3=East of the Sun
TTITLE4=The Song is You
TTITLE5=52nd Street Theme[I]
TTITLE6=Ornithology
TTITLE7=Scrapple from the Apple
TTITLE8=My Old Flame
TTITLE9=My Little Suede Shoes
TTITLE10=I Remeber You
TTITLE11=All the Things You Are
TTITLE12=Just You,Just Me
TTITLE13=I'll Remember April [I]
TTITLE14=Hot House
TTITLE15=52nd Street Theme [II]
TTITLE16=I Cover the Waterfront
TTITLE17=This Time the Dream's on Me
TTITLE18=I'll Remember April [II] into 52nd Street Theme [III]
EXTD=
EXTT0=
EXTT1=
EXTT2=
EXTT3=
EXTT4=
EXTT5=
EXTT6=
EXTT7=
EXTT8=
EXTT9=
EXTT10=
EXTT11=
EXTT12=
EXTT13=
EXTT14=
EXTT15=
EXTT16=
EXTT17=
EXTT18=
PLAYORDER=
